<svg id="Layer_2" data-name="Layer 2" xmlns="http://www.w3.org/2000/svg" xmlns:xlink="http://www.w3.org/1999/xlink" viewBox="0 0 400 300" width="406" height="306" class="illustration"><defs><linearGradient id="linear-gradient" x1="113.49" y1="224.03" x2="144.44" y2="200.14" gradientUnits="userSpaceOnUse"><stop offset="0" stop-color="#dd6f31"></stop><stop offset="1" stop-color="#603813"></stop></linearGradient><linearGradient id="linear-gradient-2" x1="200.5" y1="265.36" x2="241.4" y2="219.59" xlink:href="#linear-gradient"></linearGradient><linearGradient id="linear-gradient-3" x1="320.42" y1="199.35" x2="358.83" y2="156.36" xlink:href="#linear-gradient"></linearGradient></defs><title>PP</title><path d="M194.28,289.32,14.56,183.1c-5.72-3.21-10.63-8.49-5.05-11.94l180.37-104c2.71-1.68,6.82-2.78,9.57-1.18L388.11,175.52c5.72,3.32,6.75,12.6,1,15.93L218,289.15A23.9,23.9,0,0,1,194.28,289.32Z" fill="#dd6f31"></path><path d="M183.36,170.82l-3.13,4.6-79.15,39.72,9.26,19.42,76.82-48.92C184.17,180.18,188,175.09,183.36,170.82Z" fill="url(#linear-gradient)"></path><path d="M239.74,233.51l-11.11-2.18-50,31.75,28.47,14.75,40.49-38.31C244.56,234.06,244.35,237.78,239.74,233.51Z" fill="url(#linear-gradient-2)"></path><polyline points="185.57 18.3 192.24 21.26 185.83 24.07 184.29 20.76" fill="#68e1fd"></polyline><path d="M124.8,214.25,180.21,182a14.77,14.77,0,0,0,7.34-12.76l1.79-146.67c0-3.85-6-5.81-9.29-3.85L122.72,52.54a9.5,9.5,0,0,0-4.67,8.18V210.38A4.49,4.49,0,0,0,124.8,214.25Z" fill="#68e1fd"></path><polyline points="120.36 214.3 127.61 218.13 126.77 213.08 121.73 212.17" fill="#68e1fd"></polyline><path d="M131.75,217.93l55.41-32.29a14.77,14.77,0,0,0,7.34-12.76V24.81a3.92,3.92,0,0,0-5.92-3.38L129.67,56.22A9.5,9.5,0,0,0,125,64.4V214.05A4.49,4.49,0,0,0,131.75,217.93Z" fill="#f4f4f4"></path><polygon points="128.51 73.44 191.64 37.24 191.64 166.77 128.51 203.26 128.51 73.44" fill="#68e1fd"></polygon><ellipse cx="165.96" cy="190.4" rx="3.93" ry="2.91" transform="translate(-57.78 307.61) rotate(-76.57)" fill="#bababc"></ellipse><path d="M168.32,43.47h0a1.41,1.41,0,0,1-.71,1.22l-12.2,7a1.41,1.41,0,0,1-2.11-1.22v-.3a1.41,1.41,0,0,1,.73-1.23l12.2-6.71A1.41,1.41,0,0,1,168.32,43.47Z" fill="#ccc"></path><ellipse cx="173.92" cy="39.74" rx="1.88" ry="1.38" transform="translate(76.3 189.06) rotate(-69.69)" fill="#ccc"></ellipse><path d="M139.72,76.49v26a2.32,2.32,0,0,1-1.18,2L96.19,128.47a2.32,2.32,0,0,1-3.46-2V101.77a2.32,2.32,0,0,1,1.13-2L136.21,74.5A2.32,2.32,0,0,1,139.72,76.49Z" fill="#ffc745"></path><path d="M210.48,90.12v1.34A13,13,0,0,1,204,102.67L128.12,147a7.91,7.91,0,0,1-11.89-6.83v-1.38a13.3,13.3,0,0,1,6.66-11.52l76-43.81A7.74,7.74,0,0,1,210.48,90.12Z" fill="#ffc745"></path><path d="M198.87,83.41,189,89.09v22.33l15-8.76a13,13,0,0,0,6.44-11.21V90.12A7.74,7.74,0,0,0,198.87,83.41Z" fill="#c1272d"></path><ellipse cx="196.03" cy="93.27" rx="5.11" ry="3.83" transform="translate(36.13 240.09) rotate(-68)" fill="#c1272d" stroke="#fff" stroke-miterlimit="10" stroke-width="2"></ellipse><ellipse cx="136.43" cy="77.32" rx="7.73" ry="5.36" transform="translate(21.96 184.5) rotate(-72.66)" fill="#c1272d"></ellipse><path d="M153,73.28l29.3-16.8a1.5,1.5,0,0,0-1.51-2.59l-29.3,16.8A1.5,1.5,0,0,0,153,73.28Z" fill="#ffeed9"></path><path d="M153,81.68l29.3-16.8a1.5,1.5,0,0,0-1.51-2.59l-29.3,16.8A1.5,1.5,0,0,0,153,81.68Z" fill="#ffeed9"></path><path d="M153,90.08l29.3-16.8a1.5,1.5,0,0,0-1.51-2.59l-29.3,16.8A1.5,1.5,0,0,0,153,90.08Z" fill="#ffeed9"></path><path d="M355,165.51l-3.13,4.6L300,197.36l22.27,12.48,40.41-32.94C359.7,171.44,359.56,169.78,355,165.51Z" fill="url(#linear-gradient-3)"></path><path d="M344.53,159,347.76,174a3.39,3.39,0,0,0,1.82,2.33c1.88.92,5.75,1.88,13.11.54a3.41,3.41,0,0,0,2.72-2.62L368.72,159" fill="#68e1fd"></path><ellipse cx="356.62" cy="158.97" rx="12.09" ry="4.95" fill="#124577"></ellipse><path d="M349.59,147.82a3.88,3.88,0,0,1-1.4-1.3L341.38,136c-3.15-4.88-4.3-39.87,4-40.31,6.56-.35,13.31,15,15.66,19.47,2.2,4.2,4.61,8.67,5.92,13.25,2,6.9-2.51,12.94-6.76,18.42C358.12,149.44,352.32,149.33,349.59,147.82Z" fill="#66c652"></path><path d="M353.65,154.72q1.37,1,2.69,2a128.51,128.51,0,0,0-6.39-46,1.4,1.4,0,0,0-2.67.84A125.81,125.81,0,0,1,353.65,154.72Z" fill="#124577"></path><path d="M363.26,145a2.48,2.48,0,0,1-.16-1.21l.93-7.95c.43-3.68,14.09-21.36,18.33-18.22,3.37,2.5.46,12.79-.21,15.95a46.5,46.5,0,0,1-2.47,8.92c-1.83,4.2-6.5,5.35-10.81,6.31C366.79,149.26,364,146.86,363.26,145Z" fill="#49b230"></path><path d="M375.82,127.3a153.55,153.55,0,0,0-14.5,32.65,17.79,17.79,0,0,1,2,1.28,151.4,151.4,0,0,1,14.52-32.84C378.59,127.12,376.57,126,375.82,127.3Z" fill="#124577"></path><path d="M102.33,107l29.3-16.8a1.5,1.5,0,0,0-1.51-2.59l-29.3,16.8a1.5,1.5,0,0,0,1.51,2.59Z" fill="#ffeed9"></path><path d="M102.33,115.37l29.3-16.8A1.5,1.5,0,0,0,130.12,96l-29.3,16.8a1.5,1.5,0,0,0,1.51,2.59Z" fill="#ffeed9"></path><path d="M137.95,156.5l18.17-10.15c3.37-1.88.35-7.07-3-5.18l-18.17,10.15c-3.37,1.88-.35,7.07,3,5.18Z" fill="#ffeed9"></path><path d="M135.26,165.58l38.16-21.3c1.26-.71.13-2.65-1.14-1.94l-38.16,21.3c-1.26.71-.13,2.65,1.14,1.94Z" fill="#ffeed9"></path><line x1="200.06" y1="95.45" x2="204.51" y2="98.46" fill="#c1272d"></line><path d="M199.3,96.74l4.45,3c1.6,1.09,3.11-1.51,1.51-2.59l-4.45-3c-1.6-1.09-3.11,1.51-1.51,2.59Z" fill="#fff"></path><line x1="127.93" y1="138.71" x2="184.61" y2="107.12" fill="#c1272d" stroke="#fff" stroke-miterlimit="10"></line><path d="M180.23,142.62,171,175.72s.78,9,12.47,5.24l8-34.92S189.68,138.29,180.23,142.62Z" fill="#ff7b39"></path><path d="M194,127l-5.79,19.62s-5,2.55-6.52-2.3l4.74-19.13Z" fill="#3b125e"></path><path d="M194,127a16.37,16.37,0,0,1-9.24-.36c-11.6-4-16.15-20.34-10.36-37.26s19.43-27.06,31-23.08h0c5.79,2,10,7.13,11.84,14.5,1.72,6.86,1.19,14.94-1.49,22.75s-7.22,14.53-12.78,18.89A23.73,23.73,0,0,1,194,127Zm3.76-54.56c-6.61,1.59-13.61,9.06-17,19.11-4.43,12.94-1.59,26.12,6.21,28.79,3.58,1.23,7.83.11,12-3.13,4.56-3.58,8.32-9.19,10.58-15.8s2.74-13.35,1.33-19c-1.28-5.11-4-8.59-7.54-9.82A9.78,9.78,0,0,0,197.8,72.48Z" fill="#3b125e"></path><path d="M196.13,75.52c1.73-1.27,5.65.82,6.89,2,10.29,9.63,5.34,27.65-3.57,36.83-3.34,3.44-11.21,8.15-14.11,6.18,0,0,12.87,8.7,22.06-.91s11.43-28.19,11.43-28.19l-.57-9.81L214.89,75l-3.42-3.65L203,70.46Z" fill="#3b125e"></path><path d="M197.17,128a16.37,16.37,0,0,1-9.24-.36c-11.6-4-16.15-20.34-10.36-37.26s19.43-27.06,31-23.08h0c5.79,2,10,7.13,11.84,14.5,1.72,6.86,1.19,14.94-1.49,22.75S211.74,119,206.18,123.4A23.73,23.73,0,0,1,197.17,128Zm3.76-54.56c-6.61,1.59-13.61,9.06-17,19.11-4.43,12.94-1.59,26.12,6.21,28.79,3.58,1.23,7.83.11,12-3.13,4.56-3.58,8.32-9.19,10.58-15.8s2.74-13.35,1.33-19c-1.28-5.11-4-8.59-7.54-9.82A9.78,9.78,0,0,0,200.93,73.39Z" fill="#662d91"></path><path d="M212.08,124.35c.37-.11-2.87-4.57-3.13-5a80.85,80.85,0,0,1-4.27-7.67.55.55,0,0,0-.19-.21,13.8,13.8,0,0,0-.8-1.47.66.66,0,0,0-1.22.31,7.62,7.62,0,0,0,1,4.28c-.32.35-.67.73-1,1.13a.27.27,0,0,1,.1.3,2,2,0,0,1-.32.6,1.41,1.41,0,0,1-.29.35.31.31,0,0,1-.17.07,2,2,0,0,0,.42,1.73,2.6,2.6,0,0,0-.12,1.87l0,.08.1,0a19.06,19.06,0,0,1,2.32,1.6.29.29,0,0,1-.1.47,17.07,17.07,0,0,0,1.91.78.55.55,0,0,0,.44,0c.09.08.16.17.25.24a.66.66,0,0,0,1.09-.27.75.75,0,0,0,0-.23l.23.27a.75.75,0,0,0,.67.95.76.76,0,0,0,.84-.6.88.88,0,0,0,0-.3l.5.76a.18.18,0,0,0,.33-.06.15.15,0,0,0,0-.07,10.18,10.18,0,0,1,.69,1.36C214.83,130.65,212.17,124.52,212.08,124.35Zm-2.88-.14a.41.41,0,0,1-.41-.38.67.67,0,0,0,.56-.11l0,0a.17.17,0,0,0,.26,0s0,0,0,0A.41.41,0,0,1,209.2,124.21Z" fill="#fcbf81"></path><path d="M211.21,124.23a7.08,7.08,0,0,1-1.75-2,1.37,1.37,0,0,0-1.89-.53,8,8,0,0,1-.08-1.08c0-1.84-2.9-1.87-2.87,0a7,7,0,0,0,1.11,4.1,11.74,11.74,0,0,0,3.12,2.76,1.47,1.47,0,0,0,2.18-1.11l.13-.1A1.44,1.44,0,0,0,211.21,124.23Z" fill="#fcbf81"></path><path d="M206.8,125a5,5,0,0,1-2.2-5.59.16.16,0,0,0,0-.14.17.17,0,0,0,0,0l-1-1.7c-.14-.25-.3-.51-.42-.77-.2-.45-.45-2.22.82-1.48a6.75,6.75,0,0,1,1.15,1.61c.36.53.71,1.07,1.05,1.62.12.2.44,0,.31-.17q-.95-1.51-2-3c-.33-.45-.67-.91-1.28-.63a1.11,1.11,0,0,0-.67,1.22c-.22.42-.69.75-.77,1.25a2.45,2.45,0,0,0,.43,1.42l.16.27a.18.18,0,0,0-.07.08c-.2.55-.58,1.16-.17,1.69a2.68,2.68,0,0,0,.64.53l1.14.77a.16.16,0,0,0,.23-.05,5.81,5.81,0,0,0,2.43,3.4C206.8,125.46,207,125.15,206.8,125Zm-4.46-7a1.09,1.09,0,0,1,.07-1.2c.09-.13.18-.24.27-.35a13.62,13.62,0,0,0,1.56,2.92l0,.12a.16.16,0,0,0-.19,0C203.23,119.95,202.57,118.58,202.34,118Zm.41,2.71a.74.74,0,0,1-.38-.79,4,4,0,0,1,.25-.71c.38.5.9.9,1.52.6a5,5,0,0,0,0,1.84C203.67,121.37,203.19,121.07,202.75,120.74Z" fill="#34323d"></path><path d="M227.08,131.11s-8.36.4-10.54-1.6-5.31-8.31-5.31-8.31-5.76,3.7-6,5.84,6,12.43,8.82,13.13" fill="#66c652"></path><path d="M239.77,234.19S232.7,231,231,230.92s-4.54.46-2.06,3.58c0,0,7.43,4.86,8.41,5s3.36-.59,3.42-.34.28,2.13.28,2.13,6.21,2.37,6.49-1.79c0-.54-.9-8.25-.9-8.25" fill="#34323d"></path><path d="M247.88,216c-1.23-8-3.48-15.73-4.41-23.81-.59-5.09-1-10.2-1.64-15.28s-2.52-10-3.74-15a.55.55,0,0,1,.25-.62c-.06-.18-.11-.35-.17-.53-.63-.6-1.27-1.17-1.89-1.71l-8.69,5.85s.05,5.32.32,13c1,4.49,1.78,8.5,2.92,12.76a1.12,1.12,0,0,0-.27,1,360.85,360.85,0,0,1,6.17,40.64,1.18,1.18,0,0,0,.78,1l.24,2.1c7.56,2.92,9.22-2.16,9.22-2.16s.34-4.33.77-10.34C247.89,220.59,247.93,218.28,247.88,216Z" fill="#68e1fd"></path><path d="M183.92,134.48c.45.27.93.57,1.49.95a20.07,20.07,0,0,1-2-3c-.56-.94.83-1.7,1.51-1a59,59,0,0,0,6.21,5.84,1,1,0,0,1,.25.29l1.36,0c.4,0,.79,0,1.16,0l.32,0a.83.83,0,0,1,.76.23,2.63,2.63,0,0,1,.51.24.85.85,0,0,1,.14.12c.44.05.89.08,1.33.14a1,1,0,0,1,.73,1.39l.19-.11c1-.62,1.8,1,.8,1.65a13.41,13.41,0,0,1-7,2,.8.8,0,0,1-.79.1l-.42-.16a20.33,20.33,0,0,1-6.16-1.28,5.57,5.57,0,0,0-1.64-.37h0C183,139.11,183.48,136.8,183.92,134.48Z" fill="#fcbf81"></path><path d="M224.3,245.81l-4.2,1.5a2.31,2.31,0,0,1-1.7,1.55.93.93,0,0,1-.59.33,11,11,0,0,1-5-.81c-2-.63-9.86-3.63-7.68,2,1.43,1,3,1.87,4.5,2.77.82.5,1.65,1,2.5,1.47a5,5,0,0,0,1.47.68c1.13.17,3.87-.68,3.94-.39s.32,2.45.32,2.45,7.15,2.73,7.46-2.06C225.38,254.68,224.3,245.81,224.3,245.81Z" fill="#34323d"></path><path d="M230.21,202.85c.88-14.12,1.36-28.33,4.34-42.21.13-3.61,2.47-1.3,2.31-2.73-1.27-11.62-18.19,2.21-18.19,2.21-.69.56-.77,4.12-.91,4.93q-1.15,6.69-2,13.43c-2.8,22.68-1.77,45.25-.62,68,3.59,3.67,5.95,4.77,11.74,2.4,1.16-14.89,2.26-29.79,3.21-44.69Z" fill="#68e1fd"></path><path d="M221.16,132.65c.16-.74,2.06-1.23,2.62-1.53,1.31-.71.54-2,1.83-2.72a44.06,44.06,0,0,1,5.81-2.83h.05c3.21,0,8.59-.18,8.92,4.11.5,6.61-.08,13.18-.59,19.76-.21,2.64-.44,5.26-.67,7.84-.08.94-.21,8.57-.77,8.8-6.37,2.64-14.52,1.71-20.76-.76A211.93,211.93,0,0,1,221.16,132.65Z" fill="#66c652"></path><path d="M226.88,139.32a10.77,10.77,0,0,1-7.91,9.46c0,.44-.13,3.12-.18,3.56,5.09-1.22,8.84-7.61,9.37-13C228.24,138.5,227,138.51,226.88,139.32Z" fill="#34323d"></path><path d="M230,112.21c-.42.11-4,8.3-2.58,13.27s9.84-.14,12-3.93S238,110.14,230,112.21Z" fill="#fcbf81"></path><path d="M230.11,113.35a3.93,3.93,0,0,0,2.36,3.58c2.37.87,4.33,1.46,4.2,2.56s-4.28-.15-4.29,2.35a18.66,18.66,0,0,0,.68,5c.26,1.23,7.36-2.53,9.69-8.95s-3.52-8.11-3.8-8.16-.81-1.79-3.68-2.41-3.68.49-3.68.49a3.48,3.48,0,0,0-4.19.45c-2.65,2.1-2,5.94,1,7.5Z" fill="#34323d"></path><path d="M226.9,127.68s-14.61,8.37-19.87,8.38c-3.8,0-11.32-1.23-15.19-1.92-3.62,3.07-3.86,8.44-1.61,12.54,6.38,1,25.27,3.76,31.2.82,7.18-3.56,15.06-8.32,15.06-8.32S243.61,132.19,226.9,127.68Z" fill="#66c652"></path><path d="M185.41,135.43s-2.19-1.8-2.75-1.43-1.9,3.42-1.72,5.23,1.11,3.34,5.6,3.29" fill="#fcbf81"></path><path d="M138.19,175.61l18.17-10.15c3.37-1.88.35-7.07-3-5.18l-18.17,10.15c-3.37,1.88-.35,7.07,3,5.18Z" fill="#ffeed9"></path><path d="M135.51,184.69l38.16-21.3c1.26-.71.13-2.65-1.14-1.94l-38.16,21.3c-1.26.71-.13,2.65,1.14,1.94Z" fill="#ffeed9"></path></svg>